<?xml version="1.0" encoding="utf-8"?>
<!-- Generator: Adobe Illustrator 25.2.3, SVG Export Plug-In . SVG Version: 6.00 Build 0)  -->
<svg version="1.1"
	 id="SVGRoot" xmlns:cc="http://creativecommons.org/ns#" xmlns:dc="http://purl.org/dc/elements/1.1/" xmlns:inkscape="http://www.inkscape.org/namespaces/inkscape" xmlns:rdf="http://www.w3.org/1999/02/22-rdf-syntax-ns#" xmlns:sodipodi="http://sodipodi.sourceforge.net/DTD/sodipodi-0.dtd" xmlns:svg="http://www.w3.org/2000/svg"
	 xmlns="http://www.w3.org/2000/svg" xmlns:xlink="http://www.w3.org/1999/xlink" x="0px" y="0px" viewBox="0 0 250 160"
	 style="enable-background:new 0 0 250 160;" xml:space="preserve">
<style type="text/css">
	.st0{fill-rule:evenodd;clip-rule:evenodd;fill:#FFFFFF;}
	.st1{fill-rule:evenodd;clip-rule:evenodd;}
</style>
<sodipodi:namedview  bordercolor="#666666" borderopacity="1.0" id="base" inkscape:current-layer="layer1" inkscape:cx="125" inkscape:cy="80" inkscape:document-units="px" inkscape:pageopacity="0.0" inkscape:pageshadow="2" inkscape:window-height="713" inkscape:window-maximized="1" inkscape:window-width="1299" inkscape:window-x="67" inkscape:window-y="27" inkscape:zoom="2.1496046" pagecolor="#ffffff" showgrid="false">
	</sodipodi:namedview>
<desc>Created with Sketch.</desc>
<g id="Introduction">
	<g id="variations" transform="translate(-3006.000000, -758.000000)">
		<g id="images" transform="translate(126.000000, 110.000000)">
			<g id="a-person_x2F_bust" transform="translate(2880.000000, 648.000000)">
				<g id="body_x2F_Dress" transform="translate(31.056338, 135.052838)">
					<path id="_xD83C__xDFA8_-Background" class="st0" d="M157.4,62.1c-0.4-4-0.7-8.1-0.8-12c-0.2-4,0.1-8.1,0.2-12.1
						c0.2-8.2,0.5-16.4-0.2-24.5c-0.6-7.7-2-15.4-4.3-22.8c-1.1-3.6-2.3-7.4-4-10.7c-1.8-3.4-4.6-5.5-7.7-7.6
						c-3.4-2.2-6.6-4.4-9.9-6.6c-2.8-1.8-7.8-4-10.1-6.5c-2.4-2.6-2.9-9.1-4.5-12.1c-1.6-3-6-5-9.3-5c-5.6,0-9.8-0.3-14.5,4.9
						c-2.3,2.6-0.5,5.2-2.9,7.7c-2.2,2.3-7.9,4.6-10.8,6c-3.4,1.6-7,3-10.5,4.2c-3.6,1.3-7.4,2.2-11,3.4c-3.5,1.2-8.1,5.9-10.8,8.4
						c-2.5,2.4-3.2,2.1-5,5C37.1-12,32.9-5.7,29.5,1.1c-1.7,3.4-3.3,6.9-3.9,10.7c-0.7,4,0,7.8,1,11.7c1.1,4,4.5,7.6,5.5,11.6
						c0.5,1.8-1.3,3.8-0.4,5.5c0.4,0.8,0.9,1.6,1.5,2.4c0.4,0.6,2.2,0.4,2.4,1.2c0.3,0.7-1,2.2-1,2.9c0,1-0.1,2.1-0.1,3.1l-0.2,6.1
						c-0.2,4-0.3,8.2-0.4,12.2C34,69.7,34,71,34.3,72.2c-0.1-0.1-0.3-0.3-0.3-0.3c-0.3-0.4-0.9-0.1-0.7,0.4c0.4,0.8,1,1.3,1.7,1.7
						c0.8,1.2,123.4,3.9,124,0.3c0.3-1.9-0.3-4-0.5-6C157.9,66.3,157.7,64.2,157.4,62.1z"/>
					<path id="_xD83D__xDD8D_-Ink" class="st1" d="M32.8,11.7c0.3-0.8,1.7-0.5,1.3,0.3c-1.5,4.5-0.4,9.3,1.3,13.5
						c0.3,0.8-1,1.2-1.3,0.3C32.3,21.5,31.2,16.4,32.8,11.7 M43.2,37.2c4.4,0.6,8.7,1,13.2,1.3c0.2,0,0.3,0,0.5-0.1
						c-0.2,2-0.3,4-0.3,6.1c-1.2,0-2.4,0.1-3.6,0c-1.6-0.1-3.1-0.1-4.7-0.3c-3-0.3-6.1-0.6-9-1.1c-1.1-0.2-2.5-0.3-3.8-0.7
						c-1.2-0.3-2.3-0.9-2.9-2c-0.5-0.9-0.6-2-0.6-3.1c0-0.7,0.1-1.4,0.2-2.1c0.1-0.1,0.2-0.2,0.3-0.3c1.3,0.4,2.7,0.7,4,1
						C38.8,36.5,41.1,36.8,43.2,37.2 M40.8,20.7c0,1.3,0.4,2.6,1.1,3.7c0.5,0.8-0.8,1.5-1.3,0.8c-0.8-1.3-1.3-2.9-1.3-4.5
						C39.4,19.8,40.8,19.8,40.8,20.7 M153,35.6c0.6,0,1.2,0.1,1.8,0.1c0.5,0.4,1.3,0.7,1.9,0.5c0,0.1,0.1,0.1,0.1,0.2
						c0.1,0.4,0.2,0.9,0.3,1.4c0.1,0.4,0.1,0.9,0.2,1.3c0,0.3,0.2,0.8,0,0.9c-0.2,0.2-0.4,0.2-0.6,0.2c-0.5,0.1-1.1,0.1-1.6,0.2
						c-1,0.1-2,0.2-3,0.3c-1,0.1-2,0.1-3,0.3c-0.2-1.9-0.3-3.9-0.4-5.8C150,35.5,151.6,35.5,153,35.6 M28.7,32.4
						c0.6,1.2,1.2,2.3,2.3,2.9c0.2,0.1,0.3,0.2,0.5,0.2c-0.2,0.6-0.2,1.1-0.3,1.6c-0.2,1.2-0.2,2.4,0.1,3.4c0.3,1.1,0.8,2.1,1.7,2.8
						c0.4,0.3,0.8,0.6,1.3,0.8c-0.1,0.3-0.2,0.4-0.1,0.7c-0.1,0.6-0.2,1.2-0.3,1.8c-0.2,1.3-0.3,2.5-0.5,3.8c-0.3,2.5-0.5,5-0.7,7.6
						s-0.3,5-0.4,7.6c-0.1,1.3-0.1,2.6-0.2,3.9c-0.1,1.3-0.3,2.7,0.3,4c0.5,1,2.1,0.9,2.5,0c0.6-1.2,0.4-2.6,0.4-4
						c0-1.3,0-2.4,0.1-3.7c0.1-2.5,0.2-5,0.2-7.6c0.1-2.4,0.2-5,0.2-7.4c0-1.3,0-2.6,0-3.9c0-0.7,0-1.5,0-2.2
						c0.4,0.1,0.9,0.2,1.3,0.3c3.4,0.7,6.8,1.2,10.3,1.5c1.8,0.2,3.4,0.3,5.2,0.3c1.3,0.1,2.6,0.2,3.9,0.1c-0.1,3.1-0.2,6.1-0.2,9.2
						c0,2.2,0,4.5,0.1,6.6c0,1.2,0.1,2.4,0.1,3.5c0,0.5,0,1.1,0.1,1.6c0,0.2,0,0.3,0.1,0.5c-0.1,0.3-0.3,0.7-0.3,1
						c-0.4,1.5-0.4,2.9-0.3,4.5c0.2,1.3,1.3,2.5,2.7,2c0.3-0.1,0.5-0.2,0.7-0.3c2.1,0.3,4.2,0.3,6.4,0.3c3.1,0.1,6.2,0.1,9.4,0.1
						c6.1,0,12.3,0.1,18.4,0.1c12.4,0,24.7,0.1,37,0.1c3.4,0,6.8,0,10.3,0c1.8,0,3.5,0,5.3,0.1c0.8,0,1.7,0.1,2.4,0.1
						c0.9,0,1.8-0.3,2.7-0.5c0.5-0.2,0.8-0.7,0.6-1.1c0.8,0.2,1.8-0.3,2.1-1.2c0.2-0.7,0.2-1.4-0.2-2l0,0c-0.6-3.8-1.3-7.5-1.9-11.3
						c-0.7-4.1-1.3-8.2-1.8-12.4c-0.4-3.1-0.8-0.9-1-4c1.3,0.1,2.7-0.3,4-0.4c0.9-0.1,1.8-0.3,2.7-0.3c-0.1,0.9-0.1,1.8-0.1,2.7
						c-0.1,1.8,0,3.4,0,5.2c0.1,3.4,0.3,1.4,0.6,4.8c0.3,3.4,0.7,6.7,1.2,10.1c0.3,1.8,0.5,3.4,0.8,5.2c0.1,0.8,0.3,1.6,0.3,2.4
						c0.2,0.9,0.2,1.8,0.9,2.6c0.5,0.5,1.7,0.5,2-0.3c0.4-0.9,0.3-1.8,0.1-2.8c-0.2-0.8-0.3-1.6-0.4-2.4c-0.3-1.8-0.5-3.4-0.8-5.2
						c-0.5-3.4-0.9-6.6-1.3-10c-0.4-3.4-0.8-1.4-1.3-4.8c-0.2-1.7-0.4-3.4-0.7-5.1c-0.1-0.8-0.2-1.8-0.3-2.7c0.1,0,0.1,0,0.2,0
						c1.1-0.2,2-0.8,2.3-1.9c0.3-1.1-0.1-2.3-0.3-3.4c-0.2-0.9-0.3-2-0.9-2.8c2-2.6,3.4-5.8,4.2-8.9c0.9-3.4,1.3-6.9,1.3-10.4
						c0.1-4-0.3-8.1-0.9-12c0-0.8-0.1-1.7-0.1-2.5c-0.6-8.2-3.2-18-11.3-21.9c0,0-0.1,0-0.1-0.1c-0.7-0.8-1.4-1.4-2.1-2.1
						c-1.2-1.2-2.4-2.2-3.6-3.2c-2.5-2-5.2-3.5-8.1-5c-2.9-1.4-5.8-2.8-8.6-4.4c-2.4-1.3-4.6-3-6.7-4.9c-2.4-2.1-4-5-4.7-8.1
						c0-0.2-0.3-0.1-0.3,0c-0.2,5.6,3.6,10.7,8.1,13.9c5.3,3.8,11.6,5.5,17,9.2c1.3,0.9,2.6,1.9,3.8,3c-1.8-0.2-3.6-0.1-5.4,0.4
						c-0.7,0-1.3-0.1-2-0.1c-1.5-0.1-3-0.2-4.6-0.3c-3.1-0.2-6.2-0.3-9.4-0.3c-6.1-0.3-12.3-0.4-18.4-0.5c-12.4-0.3-24.6-0.3-37,0.1
						c-3.4,0.1-20.9-0.6-22.5-0.4c2.4-2.1,5-3.8,7.9-5.1c3.6-1.8,7.3-2.9,11.2-4c7.9-2.2,16.2-4.3,22.5-9.8c1.6-1.3,2.9-2.9,4.1-4.7
						c1.1-1.7,2.4-3.8,2.4-5.9c0-1.4-2-2-2.7-0.8c-0.4,0.8-0.7,1.6-1,2.4s-0.8,1.6-1.3,2.3c-0.9,1.4-2.1,2.8-3.4,4
						c-2.7,2.5-6,4.3-9.3,5.7C69.4-36.4,61-35,53.8-30.9c-3.2,1.8-6.2,4.3-8.2,7.5c-0.3,0.1-0.6,0.1-0.9,0.2
						c0.3-0.3,0.4-0.6,0.7-0.8c0.2-0.2-0.1-0.4-0.3-0.3c-3.6,3.2-7,6.7-10,10.5c-2.9,3.6-5.6,7.5-7.5,11.7
						c-3.4,7.6-4.2,16.4-2.4,24.5c0.5,2.3,1.2,4.4,2,6.6C27.7,30.2,28.2,31.3,28.7,32.4"/>
				</g>
				<g id="head_x2F_Medium-Bangs-3" transform="translate(78.591549, 38.043053)">
					<path id="_xD83C__xDFA8_-Background_1_" class="st0" d="M59.5-30.1c10.1,0,22.7,11.5,26.4,16.4c3.1,4.1,2.7,25.3,2.7,37.9
						c0,2.6-1.2,7.6-1.6,10.1c-1.6,9.2-8.5,17-22.1,17c-11.1,0-19.7-3.5-27.9-12.5c-1.8-2-11.1,5.3-12.9,2.7c-5,0-9-46,0.6-59.8
						S49.4-30.1,59.5-30.1z"/>
					<path id="_xD83D__xDD8D_-Ink_1_" class="st1" d="M29.1-26.9c5.8-5.3,13.6-7.8,21.4-7.6c4,0.1,8.1,0.8,11.9,2.2
						c1.9,0.7,3.8,1.5,5.5,2.5c0.7,0.3,1.3,0.8,1.8,1.2l0.2,0.1l0,0c1.5,0.6,2.9,1.5,4.1,2.7c2.4-0.2,5,0,7.3,0.8
						c3.4,1.1,6.4,3,8.6,5.8c2.5,3.2,3.4,7.1,3,11.2l-0.1,0.7C92.6-3.9,92.1,0.7,89.1,3c-0.3,0.2-0.5,0.3-0.8,0.4
						c1.8,3.2,3.4,6.8,4.4,10.4c3.5,13.8,0.8,28.2-3.4,41.5c-0.3,1.1-2,1.8-2.9,0.8c-1.5-1.9-3.7-3.4-6.1-3.6
						c-1.5-0.2-3,0.2-4.5-0.6c-0.6-0.3-1.1-0.8-1.5-1.3c-2.4,0.9-5,1.3-7.6,1.3c-4.3-0.2-8.8-1.7-11.7-4.9c-0.5-0.5-0.6-1.1-0.5-1.6
						c0.3-0.2,0.8-0.3,1.1-0.3c3.7,2.2,7.8,3.6,12.2,3.7c2.5,0.1,5-0.3,7.1-1.8c0.4-0.3,0.8-0.8,1.3-1.1c4.3-2.8,7.3-7.5,8.7-12.5
						c1.3-4.7,1.2-9.6,0.8-14.4l-0.3-2.5c-0.3-3.7-0.7-7.5-0.8-11.2l0,0l0,0c0.9-0.1,0.9-1.5,0-1.4c-2.4,0.2-4.7-0.3-7.1-0.1
						c0-1.1-0.1-2.2-0.4-3.3c-0.2-0.6-1.3-0.8-1.3,0c-0.2,1-0.2,1.9-0.3,2.9C72,3.5,68.5,3.2,64.9,3.3c-0.7-0.7-0.8-1.9-1.2-2.8
						c-0.1-0.2-0.1-0.3-0.2-0.3c-0.3,1.3-0.7,2.4-1.2,3.6h-0.8C56.7,3.8,51.6,4,46.8,5c-0.3-0.3-0.5-0.7-0.6-1.1
						c-0.3-2.6-0.8-5.2-1.8-7.7l-0.1-0.3v-0.1c-0.7,1-1.4,2-2.3,2.9c-0.5,0.5-1,1-1.5,1.5c-0.5,0.6-1.1,1.2-1.6,1.8
						c0,0.1,0,0.3,0.1,0.3c0.2,1.2,0.2,2.4,0.1,3.6c-0.3,2.2-0.8,4.3-1.8,6.2v0.2c-0.2,0.9-0.3,1.8-0.8,2.5c0.6,0.7,1.1,1.5,1.3,2.4
						c0.3,0.8-0.9,1.5-1.5,0.8c-0.5-0.5-1-1-1.6-1.3c0,0.1-0.1,0.1-0.2,0c-1.6-0.9-4.3-0.6-5.9,0.3c-2,1-2.8,3.2-2.5,5.3
						s1.1,4.5,2.9,5.5c0.8,0.5,1.4,0.5,2.3,0.3c0.3-0.1,0.6-0.3,0.8-0.4l0.2-0.1c0.6-0.4,1.1-0.8,1.8-0.8c0.7-0.3,1.3,0.1,1.6,0.8
						v0.1c0.1,0.3,0.3,0.8,0.3,1.3c-0.1,0.6-0.3,1.1-0.8,1.6c-0.1,0.1-0.2,0.2-0.3,0.3c7,7.5,7.8,19.3,4.3,28.7
						c-0.2,0.4-0.3,0.8-0.5,1.3c-0.6,1.3-2.9,0.9-3.2-0.4c-0.1-0.4-0.2-0.8-0.3-1.3c-0.2-0.8-0.4-1.5-0.7-2.2l-0.1-0.3
						c-0.3-0.6-0.4-1.2-0.6-1.8v-0.1v-0.1l-0.3,0.8l0,0l-1.1,2.4c-0.5,1.1-2.1,0.5-2.2-0.6l0,0c0-0.2,0-0.4,0-0.6
						c-0.1-1.4-0.3-2.9-0.8-4.2l-0.2,0.2c-2.1,2.6-4.6,5.1-8.1,5.7c-0.8,0.2-1.8-0.8-1.3-1.6c0.3-0.3,0.5-0.8,0.7-1.1
						c-0.2-0.1-0.3-0.2-0.5-0.3c-1.3-0.8-2.4-1.8-3.3-2.9c-1.9-2.5-2.6-5.7-2.8-8.7c-0.2-3.3,0.1-6.7,1-9.8c0.4-1.3,0.9-2.7,1.5-4
						c-0.1-0.1-0.1-0.3-0.1-0.3c-0.7-1.8-1.2-3.7-1.6-5.5c-0.9-3.8-1.3-7.7-1.4-11.6c-0.1-7.5,1.2-14.6,3.7-21.1
						C19.8-15.5,23.7-22,29.1-26.9z M25.8,34.4c-0.5-0.8-1.7-0.1-1.3,0.7l0,0c0.8,1.2,1.1,2.6,1.6,4c0.3,0.8,1.7,0.5,1.3-0.4
						l-0.1-0.3C27,37,26.6,35.6,25.8,34.4z M30,19.9l0.3-0.2c1-0.5,1.9-0.8,3.1-0.4c1.6,0.6,3.3,2.4,2.3,4.1
						c-0.4,0.7-1.1,0.9-1.8,0.8c-1.3-0.3-1.5-1.3-2.2-2.3l-0.1-0.2c-0.4-0.6-0.8-1.3-1.5-1.5C30,20.2,29.9,19.9,30,19.9z M31-17.1
						L31-17.1c0.8-0.7-0.3-1.7-0.9-1.1c-3.1,2.8-4.2,7.1-5.8,10.8c-0.3,0.8,0.8,1.5,1.3,0.8C27-10.2,28-14.4,31-17.1L31-17.1z
						 M68.5-18.3c-0.8-0.3-1.5,0.8-0.8,1.2l0,0c2.8,1.3,4,4.1,5,6.7c0.3,0.8,1.6,0.1,1.3-0.8l-0.2-0.3C72.7-14.3,71.4-17,68.5-18.3z
						 M72.9-20c-0.8-0.3-1.3,1.1-0.3,1.3c2.4,0.8,4,2.6,5.3,4.6c0.5,0.8,1.8,0.1,1.3-0.8C77.4-17.1,75.6-19.1,72.9-20z"/>
				</g>
				<g id="face_x2F_Smiling" transform="translate(112.183099, 77.354207)">
					<path id="_xD83D__xDD8D_-Ink_2_" class="st1" d="M34.5-0.5c-1.2-0.5-2.3-1.3-3-2.4c-0.3-0.3-0.3-0.8-0.3-1.1
						c0.1-0.4,0.3-0.8,0.6-1c0.3-0.3,0.7-0.3,1.1-0.3c0.3,0.1,0.7,0.3,0.9,0.6l0.1,0.1c0.5,0.6,1.1,1.2,1.8,1.5s1.4,0.5,2.2,0.4
						c1.4-0.2,2.4-0.9,3.5-2c0.2-0.2,0.3-0.3,0.4-0.4c0.1-0.2,0.2-0.3,0.3-0.3c0.2-0.1,0.3-0.1,0.4,0c0.2,0.1,0.3,0.2,0.3,0.3
						C43-5.1,43.1-4.9,43-4.7c-0.1,1.1-0.7,2.1-1.5,2.9c-0.9,0.8-2.1,1.4-3.3,1.7C37,0.1,35.7,0,34.5-0.5L34.5-0.5z M38.8-17.7
						c1.3,0.8,3.4,2.7,1.9,4.7c-1.7,1.8-4.1-0.3-5.4-1.2c-1.1-0.8-2.4,1.1-1.3,1.9c8.7,6.5,12.3-5.3,5.4-6.5
						C38.8-18.8,38.5-17.9,38.8-17.7z M23.3-25.2c0.2-1.8,2.9-2.3,3.2-0.4c0.3,1.6-0.1,3.1-0.8,4.6c-0.7,1.4-2.4,0.8-2.6-0.5
						C22.9-23.2,23.2-24,23.3-25.2z M44.6-26c0.4-0.5,0.9-0.8,1.6-0.7c2.1,0.6,1.5,3.6,0.8,5c-0.4,0.8-1.7,1-2.3,0.3
						c-0.9-1.2-1.4-3.4-0.2-4.5C44.5-25.8,44.5-25.9,44.6-26z M25.7-33.2l0.3-0.1c1-0.2,2.4-0.3,3,0.5c0.4,0.4,0.5,1.3,0,1.7
						c-0.9,0.8-1.9,0.4-3,0.5c-0.9,0.1-1.8,0.2-2.6,0.4c-1.9,0.5-3.4,1.5-5.1,2.6c-0.3,0.2-0.4-0.2-0.3-0.3c0.9-1.8,2.8-3.4,4.6-4.3
						C23.5-32.6,24.6-33,25.7-33.2z M42.7-34.1l0.3,0.1c2.8,0.6,6.4,1.8,7.7,4.5c0.1,0.4,0,0.5-0.1,0.5l0,0c0,0.1-0.1,0.1-0.3,0.2
						c-0.1,0-0.1,0-0.2,0c-0.6-0.2-1.1-0.3-1.5-0.6l-0.5-0.3c-0.6-0.3-1.2-0.6-1.8-0.8c-1.3-0.4-2.7-0.8-4-0.9
						c-0.3,0-0.6-0.2-0.8-0.3c-0.3-0.2-0.4-0.4-0.4-0.7c-0.1-0.4-0.1-0.7,0.2-1c0.2-0.3,0.4-0.4,0.7-0.6
						C42-34.1,42.3-34.1,42.7-34.1z"/>
				</g>
				<g id="facial-hair_x2F__x2A_-None" transform="translate(104.577451, 109.479380)">
				</g>
				<g id="accessories_x2F_Glasses-3" transform="translate(88.521127, 88.978474)">
					<path id="_xD83D__xDD8D_-Ink_3_" class="st1" d="M77.5-27.7c-1.2,1.6-3.4,2.1-5.5,1.9c-4.4-0.4-5.8-5.5-6-9.3
						c2.9,0.8-0.3-5,9.8-5.7c3.5-0.3,2.6,1.8,4.1,3.4C80.1-34.1,79.5-30.5,77.5-27.7 M56.4-31.5c-2.6,12.2-16.9,9.3-18.3-1.7
						c1.3-1,1-3.4,2.8-4.3c2.7-1.8,6.1-1.7,9.2-1.6c4,0.3,5,1.9,7.1,3.7C57.1-34.2,56.8-32.7,56.4-31.5 M83.1-42.8
						c-0.2,0-0.3-0.1-0.4-0.1c-0.1-0.1-0.3-0.1-0.4-0.2c-0.3-0.1-0.7-0.2-1.1-0.2c-5-1.2-16.8,0.5-17.2,4.8c-1.6,0.5-3,0.1-4.9,0.1
						c-1.4-6-26.1-5.1-27.2-1.5l0,0c-1.2-0.3-2.8-0.3-4.1-0.3c-2.8-0.1-5.5,0.2-8.3,0.8c-5,0.9-12,1.8-8.4,8.2l0,0l0,0
						c0.6,0.6,1.7,0.1,1.7-0.8c-1.2-3,1.5-3.4,3.5-4.2c5.1-1.8,10.4-2.1,15.7-1.5c0.4,0.5,1,0.9,1.7,1.1c3.5,0.6,1.7,3.2,4,3.6
						c-0.4,9.2,10.8,14.2,17.2,8.2c2.6-2.5,3.2-6.3,3.8-9.7c0.3-0.1,0.5-0.3,0.7-0.5c0.8-0.8,1.3-1.4,2.8-1.7
						c1.5-0.2,2.7,0.3,2.9,0.3c0,0.1,0.1,0.2,0.2,0.3s0.2,0.3,0.3,0.3c-1.5,9.2,5.6,15,12.8,10.3c3.1-2.9,3.8-7.4,4-11.4
						c0.4-0.3,0.7-0.8,0.5-1.3c-0.2-0.8,0.3-1.6,1-1.9C84.4-40.9,84.3-42.7,83.1-42.8"/>
				</g>
			</g>
		</g>
	</g>
</g>
</svg>
