<?xml version="1.0" encoding="utf-8"?>
<!-- Generator: Adobe Illustrator 25.2.3, SVG Export Plug-In . SVG Version: 6.00 Build 0)  -->
<svg version="1.1" id="Layer_1" xmlns="http://www.w3.org/2000/svg" xmlns:xlink="http://www.w3.org/1999/xlink" x="0px" y="0px"
	 viewBox="0 0 240 324" style="enable-background:new 0 0 240 324;" xml:space="preserve">
<style type="text/css">
	.st0{fill-rule:evenodd;clip-rule:evenodd;fill:#FFFFFF;}
	.st1{fill-rule:evenodd;clip-rule:evenodd;}
</style>
<desc>Created with Sketch.</desc>
<g id="Introduction">
	<g id="variations" transform="translate(-3006.000000, -758.000000)">
		<g id="images" transform="translate(126.000000, 110.000000)">
			<g id="a-person_x2F_bust" transform="translate(2880.000000, 648.000000)">
				<g id="body_x2F_Dress" transform="translate(31.056338, 135.052838)">
					<path id="_xD83C__xDFA8_-Background" class="st0" d="M164.3,170c-0.5-4.8-0.8-9.6-1-14.3c-0.2-4.8,0.1-9.6,0.2-14.4
						c0.2-9.7,0.6-19.5-0.2-29.2c-0.7-9.2-2.4-18.3-5.1-27.1c-1.3-4.3-2.7-8.8-4.8-12.7c-2.1-4-5.5-6.6-9.2-9.1
						c-4-2.6-7.9-5.2-11.8-7.9c-3.3-2.2-9.3-4.8-12-7.7c-2.9-3.1-3.4-10.8-5.3-14.4c-1.9-3.6-7.1-5.9-11.1-5.9
						c-6.7,0-11.7-0.3-17.2,5.8c-2.7,3.1-0.6,6.2-3.4,9.2c-2.6,2.7-9.4,5.5-12.8,7.1c-4.1,1.9-8.3,3.6-12.5,5
						c-4.3,1.5-8.8,2.6-13.1,4.1c-4.2,1.4-9.6,7-12.8,10c-3,2.8-3.8,2.5-6,5.9c-5,7.4-10,14.9-14,23c-2,4-3.9,8.2-4.6,12.7
						c-0.8,4.7,0,9.3,1.2,13.9c1.3,4.7,5.3,9.1,6.6,13.8c0.6,2.1-1.5,4.5-0.5,6.5c0.5,1,1.1,1.9,1.8,2.8c0.5,0.7,2.6,0.5,2.9,1.4
						c0.3,0.8-1.2,2.6-1.2,3.4c0,1.2-0.1,2.5-0.1,3.7l-0.2,7.3c-0.2,4.8-0.3,9.7-0.5,14.5c-0.1,1.6-0.1,3.1,0.3,4.6
						c-0.1-0.1-0.3-0.3-0.4-0.4c-0.3-0.5-1.1-0.1-0.8,0.5c0.5,0.9,1.2,1.5,2,2c1,1.4,146.8,4.6,147.5,0.4c0.4-2.3-0.3-4.8-0.6-7.1
						C164.9,174.9,164.6,172.5,164.3,170z"/>
					<path id="_xD83D__xDD8D_-Ink" class="st1" d="M16.1,110c0.4-1,2-0.6,1.6,0.4c-1.8,5.3-0.5,11.1,1.5,16.1c0.4,1-1.2,1.4-1.6,0.4
						C15.5,121.7,14.2,115.6,16.1,110 M28.5,140.3c5.2,0.7,10.4,1.2,15.7,1.6c0.2,0,0.4,0,0.6-0.1c-0.2,2.4-0.3,4.8-0.4,7.2
						c-1.4,0-2.9,0.1-4.3,0c-1.9-0.1-3.7-0.1-5.6-0.3c-3.6-0.3-7.2-0.7-10.7-1.3c-1.3-0.2-3-0.4-4.5-0.8c-1.4-0.4-2.7-1.1-3.4-2.4
						c-0.6-1.1-0.7-2.4-0.7-3.7c0-0.8,0.1-1.7,0.2-2.5c0.1-0.1,0.2-0.2,0.3-0.3c1.6,0.5,3.2,0.8,4.8,1.2
						C23.2,139.5,25.9,139.9,28.5,140.3 M25.6,120.7c0,1.6,0.5,3.1,1.3,4.4c0.6,0.9-0.9,1.8-1.5,0.9c-1-1.6-1.5-3.4-1.6-5.3
						C23.9,119.6,25.6,119.6,25.6,120.7 M159.1,138.4c0.7,0,1.4,0.1,2.1,0.1c0.6,0.5,1.5,0.8,2.3,0.6c0,0.1,0.1,0.1,0.1,0.2
						c0.1,0.5,0.2,1.1,0.3,1.7c0.1,0.5,0.1,1.1,0.2,1.6c0,0.3,0.2,0.9,0,1.1c-0.2,0.2-0.5,0.2-0.7,0.2c-0.6,0.1-1.3,0.1-1.9,0.2
						c-1.2,0.1-2.4,0.2-3.6,0.3c-1.2,0.1-2.4,0.1-3.6,0.4c-0.2-2.3-0.4-4.6-0.5-6.9C155.5,138.3,157.4,138.3,159.1,138.4
						 M11.2,134.6c0.7,1.4,1.4,2.7,2.7,3.5c0.2,0.1,0.4,0.2,0.6,0.2c-0.2,0.7-0.2,1.3-0.3,1.9c-0.2,1.4-0.2,2.8,0.1,4.1
						c0.3,1.3,0.9,2.5,2,3.3c0.5,0.4,1,0.7,1.6,0.9c-0.1,0.3-0.2,0.5-0.1,0.8c-0.1,0.7-0.2,1.4-0.3,2.1c-0.2,1.5-0.4,3-0.6,4.5
						c-0.3,3-0.6,6-0.8,9c-0.2,3-0.4,6-0.5,9c-0.1,1.5-0.1,3.1-0.2,4.6c-0.1,1.6-0.3,3.2,0.4,4.7c0.6,1.2,2.5,1.1,3,0
						c0.7-1.4,0.5-3.1,0.5-4.7c0-1.5,0-2.9,0.1-4.4c0.1-3,0.2-6,0.2-9c0.1-2.9,0.2-5.9,0.2-8.8c0-1.5,0-3.1,0-4.6c0-0.8,0-1.8,0-2.6
						c0.5,0.1,1.1,0.2,1.6,0.3c4,0.8,8.1,1.4,12.2,1.8c2.1,0.2,4.1,0.3,6.2,0.4c1.5,0.1,3.1,0.2,4.6,0.1c-0.1,3.7-0.2,7.3-0.2,11
						c0,2.6,0,5.3,0.1,7.9c0,1.4,0.1,2.8,0.1,4.2c0,0.6,0,1.3,0.1,1.9c0,0.2,0,0.4,0.1,0.6c-0.1,0.4-0.3,0.8-0.4,1.2
						c-0.5,1.8-0.5,3.5-0.3,5.3c0.2,1.5,1.5,3,3.2,2.4c0.3-0.1,0.6-0.2,0.8-0.3c2.5,0.3,5,0.4,7.6,0.4c3.7,0.1,7.4,0.1,11.2,0.1
						c7.3,0,14.6,0.1,21.9,0.1c14.7,0,29.4,0.1,44,0.1c4.1,0,8.1,0,12.2,0c2.1,0,4.2,0,6.3,0.1c1,0,2,0.1,2.9,0.1
						c1.1,0,2.1-0.3,3.2-0.6c0.6-0.2,0.9-0.8,0.7-1.3c1,0.2,2.2-0.3,2.5-1.4c0.2-0.8,0.2-1.7-0.2-2.4v0c-0.7-4.5-1.6-8.9-2.3-13.4
						c-0.8-4.9-1.5-9.8-2.2-14.7c-0.5-3.7-0.9-1.1-1.2-4.8c1.5,0.1,3.2-0.3,4.7-0.5c1.1-0.1,2.2-0.3,3.2-0.4
						c-0.1,1.1-0.1,2.2-0.1,3.2c-0.1,2.1,0,4.1,0,6.2c0.1,4,0.3,1.7,0.7,5.7c0.4,4,0.8,8,1.4,12c0.3,2.1,0.6,4.1,0.9,6.2
						c0.1,1,0.3,1.9,0.4,2.9c0.2,1.1,0.2,2.2,1.1,3.1c0.6,0.6,2,0.6,2.4-0.3c0.5-1.1,0.3-2.1,0.1-3.3c-0.2-1-0.3-1.9-0.5-2.9
						c-0.3-2.1-0.6-4.1-0.9-6.2c-0.6-4-1.1-7.9-1.6-11.9c-0.5-4-1-1.7-1.5-5.7c-0.2-2-0.5-4-0.8-6.1c-0.1-1-0.2-2.1-0.4-3.2
						c0.1,0,0.1,0,0.2,0c1.3-0.2,2.4-1,2.7-2.3c0.3-1.3-0.1-2.7-0.3-4c-0.2-1.1-0.4-2.4-1.1-3.3c2.4-3.1,4-6.9,5-10.6
						c1.1-4,1.5-8.2,1.6-12.4c0.1-4.8-0.3-9.6-1.1-14.3c0-1-0.1-2-0.1-3c-0.7-9.8-3.8-21.4-13.4-26c0,0-0.1,0-0.1-0.1
						c-0.8-0.9-1.7-1.7-2.5-2.5c-1.4-1.4-2.8-2.6-4.3-3.8c-3-2.4-6.2-4.2-9.6-5.9c-3.4-1.7-6.9-3.3-10.2-5.2c-2.9-1.6-5.5-3.6-8-5.8
						c-2.8-2.5-4.8-5.9-5.6-9.6c0-0.2-0.3-0.1-0.3,0c-0.2,6.7,4.3,12.7,9.6,16.5c6.3,4.5,13.8,6.6,20.2,11c1.6,1.1,3.1,2.3,4.5,3.6
						c-2.2-0.2-4.3-0.1-6.4,0.5c-0.8,0-1.6-0.1-2.4-0.1c-1.8-0.1-3.6-0.2-5.5-0.3c-3.7-0.2-7.4-0.3-11.2-0.4
						c-7.3-0.3-14.6-0.5-21.9-0.6c-14.7-0.3-29.3-0.3-44,0.1c-4,0.1-24.9-0.7-26.8-0.5c2.8-2.5,6-4.5,9.4-6.1
						c4.3-2.1,8.7-3.4,13.3-4.7c9.4-2.6,19.3-5.1,26.8-11.7c1.9-1.6,3.5-3.5,4.9-5.6c1.3-2,2.8-4.5,2.8-7c0-1.7-2.4-2.4-3.2-0.9
						c-0.5,0.9-0.8,1.9-1.2,2.9c-0.4,1-0.9,1.9-1.5,2.7c-1.1,1.7-2.5,3.3-4,4.7c-3.2,3-7.1,5.1-11.1,6.8
						c-9.2,3.7-19.2,5.3-27.8,10.2c-3.8,2.1-7.4,5.1-9.7,8.9c-0.4,0.1-0.7,0.1-1.1,0.2c0.3-0.3,0.5-0.7,0.8-1
						c0.2-0.2-0.1-0.5-0.3-0.3c-4.3,3.8-8.3,8-11.9,12.5c-3.4,4.3-6.7,8.9-8.9,13.9c-4.1,9.1-5,19.5-2.9,29.2
						c0.6,2.7,1.4,5.2,2.4,7.8C10,132,10.6,133.3,11.2,134.6"/>
				</g>
				<g id="head_x2F_Medium-Bangs-3" transform="translate(78.591549, 38.043053)">
					<path id="_xD83C__xDFA8_-Background_1_" class="st0" d="M56.8,41.9c12,0,27,13.7,31.4,19.5c3.7,4.9,3.2,30.1,3.2,45.1
						c0,3.1-1.4,9.1-1.9,12c-1.9,11-10.1,20.2-26.3,20.2c-13.2,0-23.4-4.2-33.2-14.9c-2.2-2.4-13.2,6.3-15.4,3.2
						c-5.9,0-10.7-54.7,0.7-71.1S44.8,41.9,56.8,41.9z"/>
					<path id="_xD83D__xDD8D_-Ink_1_" class="st1" d="M20.7,45.7c6.9-6.3,16.2-9.3,25.5-9.1c4.8,0.1,9.6,1,14.2,2.6
						c2.3,0.8,4.5,1.8,6.6,3c0.8,0.4,1.5,0.9,2.1,1.4l0.2,0.1h0c1.8,0.7,3.4,1.8,4.9,3.2c2.9-0.2,5.9,0,8.7,0.9
						c4,1.3,7.6,3.6,10.2,6.9c3,3.8,4,8.5,3.6,13.3l-0.1,0.8c-0.4,4.2-1,9.7-4.5,12.5c-0.3,0.2-0.6,0.4-0.9,0.5
						c2.2,3.8,4.1,8.1,5.2,12.4c4.2,16.4,1,33.5-4.1,49.4c-0.4,1.3-2.4,2.2-3.4,0.9c-1.8-2.3-4.4-4-7.3-4.3
						c-1.8-0.2-3.6,0.2-5.3-0.7c-0.7-0.3-1.3-0.9-1.8-1.5c-2.9,1.1-6,1.6-9.1,1.5c-5.1-0.2-10.5-2-13.9-5.8
						c-0.6-0.6-0.7-1.3-0.6-1.9c0.4-0.2,0.9-0.3,1.3-0.3c4.4,2.6,9.3,4.3,14.5,4.4c3,0.1,6-0.4,8.4-2.2c0.5-0.4,1-0.9,1.5-1.3
						c5.1-3.3,8.7-8.9,10.4-14.9c1.6-5.6,1.4-11.4,0.9-17.1l-0.3-3c-0.4-4.4-0.8-8.9-0.9-13.3l0,0l0,0c1.1-0.1,1.1-1.8,0-1.7
						c-2.8,0.2-5.6-0.3-8.4-0.1c0-1.3-0.1-2.6-0.5-3.9c-0.2-0.7-1.5-0.9-1.6,0c-0.2,1.2-0.2,2.3-0.3,3.5c-4.2-0.1-8.4-0.4-12.6-0.3
						c-0.8-0.8-1-2.3-1.4-3.3c-0.1-0.2-0.1-0.3-0.2-0.4c-0.3,1.5-0.8,2.9-1.4,4.3l-1,0c-5.8,0-11.8,0.2-17.5,1.4
						c-0.4-0.3-0.6-0.8-0.7-1.3c-0.4-3.1-1-6.2-2.1-9.2l-0.1-0.4c0,0,0-0.1,0-0.1c-0.8,1.2-1.7,2.4-2.7,3.5
						c-0.6,0.6-1.2,1.2-1.8,1.8c-0.6,0.7-1.3,1.4-1.9,2.1c0,0.1,0,0.3,0.1,0.4c0.2,1.4,0.2,2.9,0.1,4.3c-0.3,2.6-1,5.1-2.2,7.4
						l0,0.2c-0.2,1.1-0.4,2.2-1,3c0.7,0.8,1.3,1.8,1.6,2.9c0.3,1-1.1,1.8-1.8,1c-0.6-0.6-1.2-1.2-1.9-1.6c0,0.1-0.1,0.1-0.2,0
						c-1.9-1.1-5.1-0.7-7,0.3c-2.4,1.2-3.3,3.8-3,6.3c0.3,2.5,1.3,5.3,3.4,6.6c1,0.6,1.7,0.6,2.7,0.3c0.3-0.1,0.7-0.4,0.9-0.5
						l0.2-0.1c0.7-0.5,1.3-0.9,2.1-0.9c0.8-0.3,1.6,0.1,1.9,0.9l0,0.1c0.1,0.4,0.4,1,0.3,1.6c-0.1,0.7-0.4,1.3-0.9,1.9
						c-0.1,0.1-0.2,0.2-0.3,0.3c8.3,8.9,9.3,22.9,5.1,34.1c-0.2,0.5-0.4,1-0.6,1.5c-0.7,1.6-3.4,1.1-3.8-0.5c-0.1-0.5-0.2-1-0.3-1.5
						c-0.2-0.9-0.5-1.8-0.8-2.6l-0.1-0.3c-0.3-0.7-0.5-1.4-0.7-2.2l0-0.1c0,0,0-0.1,0-0.1l-0.4,0.9l0,0l-1.3,2.8
						c-0.6,1.3-2.5,0.6-2.6-0.7l0,0c0-0.2,0-0.5,0-0.7c-0.1-1.7-0.4-3.4-0.9-5l-0.2,0.2c-2.5,3.1-5.5,6.1-9.6,6.8
						c-1,0.2-2.2-0.9-1.5-1.9c0.3-0.4,0.6-0.9,0.8-1.3c-0.2-0.1-0.4-0.2-0.6-0.3c-1.6-0.9-2.8-2.1-3.9-3.5c-2.3-3-3.1-6.8-3.3-10.4
						c-0.2-3.9,0.1-8,1.2-11.7c0.5-1.6,1.1-3.2,1.8-4.7c-0.1-0.1-0.1-0.3-0.1-0.4c-0.8-2.2-1.4-4.4-1.9-6.6
						c-1.1-4.5-1.6-9.2-1.7-13.8C2,83.5,3.5,75,6.5,67.3C9.6,59.3,14.3,51.5,20.7,45.7z M16.8,118.6c-0.6-0.9-2-0.1-1.5,0.8l0,0
						c0.9,1.4,1.3,3.1,1.9,4.7c0.3,1,2,0.6,1.6-0.5l-0.1-0.3C18.2,121.7,17.7,120,16.8,118.6z M21.8,101.3l0.4-0.2
						c1.2-0.6,2.3-1,3.7-0.5c1.9,0.7,3.9,2.8,2.7,4.9c-0.5,0.8-1.3,1.1-2.2,0.9c-1.5-0.3-1.8-1.6-2.6-2.7l-0.1-0.2
						c-0.5-0.7-1-1.6-1.8-1.8C21.7,101.7,21.6,101.4,21.8,101.3z M22.9,57.4l0.1-0.1c0.8-0.7-0.4-1.9-1.2-1.2
						c-3.7,3.3-5,8.4-6.9,12.8c-0.4,1,1,1.8,1.5,0.9C18.2,65.6,19.4,60.6,22.9,57.4L22.9,57.4z M67.6,55.9c-1-0.4-1.8,1-0.9,1.4l0,0
						c3.3,1.5,4.7,4.9,6,8c0.4,1,1.9,0.1,1.5-0.9L74,64C72.6,60.7,71,57.5,67.6,55.9z M72.8,53.9c-1-0.4-1.5,1.3-0.4,1.6
						c2.8,1,4.7,3.1,6.3,5.5c0.6,0.9,2.1,0.1,1.5-0.9C78.2,57.4,76,55,72.8,53.9z"/>
				</g>
				<g id="face_x2F_Smiling" transform="translate(112.183099, 77.354207)">
					<path id="_xD83D__xDD8D_-Ink_2_" class="st1" d="M33.5,84.5c-1.4-0.6-2.7-1.5-3.6-2.8c-0.3-0.4-0.4-0.9-0.3-1.3
						c0.1-0.5,0.4-0.9,0.7-1.2c0.4-0.3,0.8-0.4,1.3-0.4c0.4,0.1,0.8,0.3,1.1,0.7l0.1,0.1c0.6,0.7,1.3,1.4,2.1,1.8
						c0.8,0.4,1.7,0.6,2.6,0.5c1.7-0.2,2.9-1.1,4.2-2.4c0.2-0.2,0.3-0.3,0.5-0.5c0.1-0.2,0.2-0.3,0.4-0.3c0.2-0.1,0.4-0.1,0.5,0
						c0.2,0.1,0.3,0.2,0.4,0.3c0.1,0.1,0.2,0.3,0.1,0.5c-0.1,1.3-0.8,2.5-1.8,3.4c-1.1,1-2.5,1.7-3.9,2
						C36.4,85.3,34.9,85.1,33.5,84.5L33.5,84.5z M38.6,64.1c1.6,1,4,3.2,2.3,5.6c-2,2.1-4.9-0.3-6.4-1.4c-1.3-0.9-2.8,1.3-1.6,2.3
						c10.4,7.7,14.6-6.3,6.4-7.7C38.6,62.8,38.2,63.8,38.6,64.1z M20.1,55.2c0.2-2.2,3.5-2.7,3.8-0.5c0.3,1.9-0.1,3.7-0.9,5.5
						c-0.8,1.7-2.9,0.9-3.1-0.6C19.7,57.5,20,56.6,20.1,55.2z M45.5,54.2c0.5-0.6,1.1-1,1.9-0.8c2.5,0.7,1.8,4.3,0.9,6
						c-0.5,0.9-2,1.2-2.7,0.4c-1.1-1.4-1.7-4.1-0.2-5.4C45.4,54.4,45.4,54.3,45.5,54.2z M23,45.6l0.4-0.1c1.2-0.2,2.8-0.4,3.6,0.6
						c0.5,0.5,0.6,1.5,0,2c-1.1,0.9-2.3,0.5-3.6,0.6c-1.1,0.1-2.1,0.2-3.1,0.5c-2.3,0.6-4.1,1.8-6.1,3.1c-0.3,0.2-0.5-0.2-0.4-0.4
						c1.1-2.2,3.3-4,5.5-5.1C20.4,46.3,21.7,45.9,23,45.6z M43.2,44.6l0.3,0.1c3.3,0.7,7.6,2.1,9.2,5.3c0.1,0.5,0,0.6-0.1,0.6l0,0
						c0,0.1-0.1,0.1-0.3,0.2c-0.1,0-0.1,0-0.2,0c-0.7-0.2-1.3-0.4-1.8-0.7l-0.6-0.3c-0.7-0.3-1.4-0.7-2.1-0.9
						c-1.6-0.5-3.2-0.9-4.8-1.1c-0.4,0-0.7-0.2-1-0.4c-0.3-0.2-0.5-0.5-0.5-0.8c-0.1-0.5-0.1-0.8,0.2-1.2c0.2-0.3,0.5-0.5,0.8-0.7
						C42.4,44.6,42.8,44.6,43.2,44.6z"/>
				</g>
				<g id="facial-hair_x2F__x2A_-None" transform="translate(104.577451, 109.479380)">
				</g>
				<g id="accessories_x2F_Glasses-3" transform="translate(88.521127, 88.978474)">
					<path id="_xD83D__xDD8D_-Ink_3_" class="st1" d="M80.1,54.4c-1.4,1.9-4.1,2.5-6.5,2.3c-5.2-0.5-6.9-6.5-7.1-11.1
						c3.5,1-0.3-6,11.7-6.8c4.2-0.4,3.1,2.2,4.9,4.1C83.2,46.8,82.5,51.1,80.1,54.4 M55.1,49.9c-3.1,14.5-20.1,11.1-21.8-2
						c1.6-1.2,1.2-4,3.3-5.1c3.2-2.1,7.3-2,11-1.9c4.7,0.3,6,2.3,8.5,4.4C55.9,46.7,55.5,48.4,55.1,49.9 M86.8,36.4
						c-0.2,0-0.3-0.1-0.5-0.1c-0.1-0.1-0.3-0.1-0.5-0.2c-0.4-0.1-0.8-0.2-1.3-0.2c-6-1.4-20,0.6-20.5,5.7c-1.9,0.6-3.6,0.1-5.8,0.1
						c-1.7-7.1-31-6.1-32.4-1.8c0,0,0,0,0,0c-1.4-0.4-3.3-0.3-4.9-0.4c-3.3-0.1-6.6,0.2-9.9,0.9C5,41.5-3.3,42.6,1,50.2c0,0,0,0,0,0
						l0,0c0.7,0.7,2,0.1,2-0.9c-1.4-3.6,1.8-4,4.2-5c6.1-2.2,12.4-2.5,18.7-1.8c0.5,0.6,1.2,1.1,2,1.3c4.2,0.7,2,3.8,4.7,4.3
						C32.1,59,45.4,65,53.1,57.8c3.1-3,3.8-7.5,4.5-11.5c0.4-0.1,0.6-0.3,0.8-0.6c0.9-0.9,1.5-1.7,3.3-2c1.8-0.2,3.2,0.3,3.4,0.4
						c0,0.1,0.1,0.2,0.2,0.3c0.1,0.1,0.2,0.3,0.3,0.3c-1.8,10.9,6.7,17.8,15.2,12.2c3.7-3.5,4.5-8.8,4.7-13.6
						c0.5-0.3,0.8-0.9,0.6-1.6c-0.2-1,0.3-1.9,1.2-2.3C88.4,38.7,88.2,36.6,86.8,36.4"/>
				</g>
			</g>
		</g>
	</g>
</g>
</svg>
