<?xml version="1.0" encoding="utf-8"?>
<!-- Generator: Adobe Illustrator 25.2.3, SVG Export Plug-In . SVG Version: 6.00 Build 0)  -->
<svg version="1.1" id="Layer_1" xmlns="http://www.w3.org/2000/svg" xmlns:xlink="http://www.w3.org/1999/xlink" x="0px" y="0px"
	 viewBox="0 0 512 512" style="enable-background:new 0 0 512 512;" xml:space="preserve">
<style type="text/css">
	.st0{fill:#40A3F3;}
</style>
<g>
	<path class="st0" d="M127.9,120.4C58.9,133.3,11,193,14.3,262.2c2.9,63.1,47.1,115,109.4,128.7c11.4,2.6,42.4,2.6,53.9,0
		c51.8-11.3,92.2-49.9,105-100.4c5.8-22.8,5.8-46,0-68.8C269.7,171.3,229.9,133,178,121.3C168.4,119,137.8,118.6,127.9,120.4z"/>
	<path class="st0" d="M359.1,128c-18.4,4.9-35,23.8-46,52.5c-13,33.6-16.4,82.5-8.4,121.6c6.1,29.5,16.7,52.4,31.7,67.5
		c9,9.2,16.4,13.3,26.3,15.2c24.2,4.5,49.6-18.9,63-57.9c6.9-20.3,10-39,10.7-64.7c1.1-40.7-6.9-76.6-23.1-103.9
		c-5.4-9.2-18.5-22.7-25.4-26.4C378,126.8,368.6,125.5,359.1,128z"/>
	<path class="st0" d="M472,140.6c-8.9,3.7-16.4,30.8-20.4,73.4c-1.5,15.9-1.5,67.2-0.1,83.7c4.1,44.2,11.9,71.2,21.6,74.1
		c2.6,0.8,7.4-3,9.7-7.8c18.1-35.5,20.5-154.6,4.3-204.8c-3.3-9.9-5.3-13.9-8.9-16.9C474.9,139.5,474.7,139.4,472,140.6z"/>
</g>
</svg>
