<?xml version="1.0" standalone="no"?>
<!DOCTYPE svg PUBLIC "-//W3C//DTD SVG 20010904//EN"
 "http://www.w3.org/TR/2001/REC-SVG-20010904/DTD/svg10.dtd">
<svg version="1.0" xmlns="http://www.w3.org/2000/svg"
 width="1200.000000pt" height="1200.000000pt" viewBox="0 0 1200.000000 1200.000000"
 preserveAspectRatio="xMidYMid meet">

<g transform="translate(0.000000,1200.000000) scale(0.100000,-0.100000)"
fill="#000000" stroke="none">
<path d="M6560 11555 c-167 -21 -212 -32 -265 -66 -26 -16 -104 -58 -174 -93
-313 -157 -455 -265 -568 -434 -112 -168 -143 -394 -89 -651 14 -68 26 -134
26 -147 0 -15 6 -24 15 -24 9 0 15 10 15 26 0 59 34 79 79 48 19 -14 22 -23
18 -50 -4 -25 -2 -34 8 -34 27 0 90 -39 144 -89 l53 -50 -3 -92 c-3 -67 -1
-93 9 -96 8 -3 12 6 12 27 0 17 5 41 11 52 6 12 13 63 16 115 3 73 1 98 -11
115 -10 14 -16 44 -16 76 0 45 3 53 17 50 11 -2 20 -16 24 -38 3 -19 10 -44
17 -55 6 -11 18 -50 28 -87 13 -54 21 -68 38 -70 15 -2 21 -10 21 -28 0 -31
-33 -40 -51 -15 -12 16 -14 15 -26 -11 -7 -16 -20 -40 -30 -53 -10 -13 -18
-34 -18 -47 0 -12 -4 -26 -10 -29 -5 -3 -10 -18 -10 -33 0 -15 -9 -51 -20 -80
-24 -63 -26 -86 -5 -78 11 4 15 -1 15 -17 0 -13 5 -28 12 -35 15 -15 -7 -42
-35 -42 -17 0 -19 -5 -14 -35 5 -33 4 -35 -24 -35 -19 0 -29 -5 -29 -15 0 -19
-34 -20 -50 0 -6 8 -9 22 -6 32 3 10 2 24 -3 31 -7 12 -14 11 -38 -2 -38 -19
-44 -33 -33 -82 4 -22 11 -64 15 -95 3 -31 12 -65 19 -75 12 -16 18 -13 75 42
35 32 71 76 82 97 19 36 21 38 42 24 32 -21 32 -55 1 -151 -22 -69 -25 -90
-16 -115 16 -45 -5 -58 -58 -37 l-40 16 0 -48 c0 -57 15 -116 34 -131 19 -16
46 1 66 42 11 23 22 32 39 32 22 0 26 -7 37 -60 7 -33 13 -82 14 -110 0 -38 7
-60 30 -94 23 -34 27 -47 19 -57 -15 -18 6 -44 35 -44 21 0 53 -36 42 -48 -4
-3 -20 5 -37 17 -28 21 -36 22 -69 12 -45 -13 -64 -34 -78 -86 -6 -22 -27 -94
-47 -160 -20 -66 -43 -142 -51 -170 -8 -27 -19 -66 -25 -85 -6 -19 -15 -62
-20 -95 -9 -58 -33 -95 -63 -95 -6 0 -13 8 -14 18 -12 91 -13 122 -3 122 5 0
14 -7 19 -16 20 -35 30 -10 48 109 l6 37 -55 0 c-31 0 -59 -5 -62 -10 -4 -6
-15 -8 -26 -5 -17 6 -18 4 -4 -28 12 -30 12 -37 -1 -55 -19 -27 -36 -28 -59
-2 -17 19 -51 27 -160 35 -33 3 -91 9 -130 13 -78 10 -192 4 -201 -9 -3 -5 11
-9 30 -9 47 0 49 -3 112 -225 13 -49 27 -110 30 -135 5 -42 4 -44 -10 -26 -9
11 -16 29 -16 39 0 11 -18 54 -39 96 -22 42 -43 85 -48 96 -5 15 -8 10 -11
-24 -2 -24 4 -60 12 -82 21 -52 20 -71 -4 -92 -11 -9 -20 -26 -20 -38 0 -29
22 -103 33 -110 5 -4 10 -35 12 -70 2 -35 6 -82 10 -104 l6 -40 -20 24 c-12
13 -21 31 -21 41 0 10 -7 34 -15 54 -8 19 -14 39 -13 43 1 5 -3 17 -9 28 -6
11 -14 43 -18 70 -4 28 -17 73 -29 100 -23 52 -49 134 -61 195 -4 19 -16 45
-27 57 -15 16 -19 29 -14 47 6 23 3 26 -19 26 -24 0 -25 -2 -19 -42 4 -24 11
-48 15 -54 12 -15 15 -351 5 -431 -6 -42 -5 -63 2 -63 6 0 16 -17 22 -37 7
-21 16 -42 21 -48 5 -5 9 -28 9 -50 0 -23 6 -85 14 -137 19 -125 32 -397 19
-383 -14 14 -33 73 -33 102 0 12 -9 40 -20 60 -11 21 -20 50 -20 66 0 15 -6
40 -13 55 -7 15 -19 52 -26 82 -6 30 -18 80 -26 110 -25 96 -45 186 -45 202 0
18 -59 82 -68 74 -9 -9 17 -135 39 -189 11 -26 24 -66 29 -90 22 -102 42 -185
55 -227 8 -25 17 -65 21 -90 4 -25 11 -50 15 -56 13 -17 40 -97 34 -102 -9
-10 -150 149 -262 296 -57 75 -121 220 -155 352 l-12 45 -9 -42 c-12 -53 14
-194 43 -231 11 -13 20 -30 20 -36 0 -7 20 -41 45 -77 25 -35 51 -73 57 -83 7
-11 46 -64 86 -119 41 -55 81 -112 90 -127 10 -15 35 -49 56 -75 32 -38 38
-50 29 -64 -15 -24 -5 -67 23 -94 19 -17 24 -32 24 -73 0 -28 7 -68 16 -89 8
-21 14 -52 12 -71 -1 -21 4 -40 16 -53 13 -14 16 -28 12 -45 -3 -14 -1 -34 4
-43 8 -13 8 -42 -2 -103 -12 -81 -14 -85 -40 -88 -15 -2 -32 4 -40 13 -7 9
-23 28 -35 41 -13 14 -23 33 -23 43 0 25 -57 51 -109 51 l-41 0 0 -45 c0 -33
4 -45 15 -45 8 0 15 -5 15 -11 0 -7 8 -19 18 -28 23 -20 35 -79 26 -126 -5
-29 -10 -35 -32 -35 -20 0 -23 -3 -14 -12 18 -18 15 -38 -6 -38 -17 0 -45 14
-176 90 -77 44 -145 117 -182 194 -19 39 -34 76 -34 84 0 7 -5 23 -12 35 -7
12 -11 32 -9 44 1 13 -5 26 -18 32 -13 8 -21 23 -23 49 -3 34 -5 30 -21 -37
-19 -79 -17 -111 14 -178 10 -24 19 -47 19 -52 0 -15 123 -136 170 -168 76
-50 144 -93 175 -109 69 -35 101 -55 110 -67 6 -7 19 -19 30 -25 19 -11 19
-11 -2 -12 -13 0 -23 5 -23 10 0 6 -20 10 -45 10 -25 0 -45 5 -45 10 0 20 -51
31 -87 19 -33 -11 -62 -44 -43 -51 5 -2 -2 -8 -15 -15 -20 -9 -25 -8 -25 3 0
18 -24 18 -39 0 -9 -11 -10 -20 -1 -35 13 -26 19 -26 36 -3 7 9 14 12 14 5 0
-6 13 -14 30 -18 34 -8 50 -25 23 -26 -10 0 -34 -1 -53 -2 -35 -2 -35 -3 -32
-42 5 -47 15 -63 45 -67 12 -2 22 -10 22 -18 0 -12 -24 -16 -135 -20 -110 -4
-140 -8 -163 -24 -26 -17 -45 -18 -290 -13 -343 7 -491 33 -796 138 -179 62
-444 133 -626 169 -55 10 -113 23 -130 28 -126 39 -286 46 -395 18 -36 -9 -69
-21 -74 -26 -6 -6 -17 -10 -26 -10 -20 0 -79 -30 -116 -59 -67 -52 -260 -250
-290 -298 -44 -68 -54 -117 -64 -308 -5 -88 -13 -207 -19 -265 -6 -58 -13
-197 -15 -310 -3 -113 -9 -342 -15 -509 -7 -197 -7 -310 -1 -321 14 -26 12
-53 -5 -86 -22 -42 -19 -54 14 -54 35 0 45 -20 25 -49 -19 -27 -32 -27 -44 1
-7 20 -9 17 -9 -17 -1 -28 2 -36 8 -26 7 11 12 6 19 -20 12 -43 2 -62 -13 -25
-11 25 -13 26 -20 10 -4 -11 -9 -164 -12 -342 -4 -320 -4 -324 17 -329 12 -3
20 -14 20 -26 0 -11 9 -31 20 -43 l21 -21 -40 -7 c-33 -5 -42 -11 -47 -32 -4
-14 -4 -134 -1 -266 5 -211 4 -243 -10 -253 -12 -9 -16 -38 -19 -136 -3 -68
-8 -176 -13 -239 -5 -63 -10 -182 -10 -265 -1 -150 -13 -341 -31 -510 -6 -49
-14 -255 -19 -456 -5 -201 -13 -398 -17 -437 l-7 -72 4656 0 4656 0 -5 33 c-2
17 -13 160 -24 317 -11 157 -29 398 -40 535 -11 138 -24 322 -30 410 -6 88
-22 311 -35 495 -14 184 -27 369 -30 410 -5 75 -55 756 -74 1010 -6 74 -15
205 -21 290 -17 256 -41 597 -66 929 -4 51 -12 97 -18 102 -6 6 -20 16 -31 24
-18 12 -20 24 -20 107 1 124 33 216 127 370 40 64 54 136 43 215 -8 61 -56
263 -157 668 -121 483 -135 553 -146 720 -6 83 -20 188 -31 235 -23 99 -105
349 -131 401 -34 66 -121 290 -157 402 -39 124 -66 167 -121 198 -20 11 -59
36 -87 55 -66 46 -169 99 -242 123 -61 20 -88 27 -243 61 -65 15 -107 31 -134
51 -22 16 -48 29 -57 29 -20 0 -34 16 -42 49 -6 24 21 89 50 122 12 15 37 112
63 249 19 96 7 299 -22 390 -35 111 -77 203 -120 265 -118 170 -122 177 -119
222 2 54 -21 105 -63 137 -18 14 -41 41 -51 62 -17 36 -17 39 9 134 31 116 32
159 6 268 -26 107 -61 188 -149 345 -113 202 -158 265 -267 372 -72 70 -116
123 -147 177 -62 105 -188 269 -241 314 -51 43 -283 176 -367 210 -107 45
-181 55 -419 59 -158 3 -259 0 -340 -10z m-822 -788 c3 -36 5 -38 35 -35 29 3
32 0 35 -27 2 -22 -5 -39 -28 -65 -27 -30 -31 -40 -25 -70 4 -19 7 -55 6 -80
-1 -36 5 -56 28 -90 17 -25 31 -53 31 -62 0 -15 -4 -15 -30 -6 -24 8 -35 7
-55 -6 -13 -9 -41 -16 -61 -16 -21 0 -46 -8 -61 -20 -14 -11 -30 -20 -34 -20
-5 0 -9 36 -9 79 0 154 59 378 118 444 25 28 47 17 50 -26z m257 -360 c11 -12
11 -19 -2 -44 -12 -26 -20 -30 -54 -30 -21 0 -39 1 -39 2 0 1 14 16 30 33 17
18 30 36 30 42 0 14 19 12 35 -3z m-65 -147 c0 -5 -4 -10 -10 -10 -5 0 -10 5
-10 10 0 6 5 10 10 10 6 0 10 -4 10 -10z m688 -105 c9 -8 -21 -45 -36 -45 -10
0 -22 -4 -27 -9 -6 -4 -22 -11 -38 -15 -26 -6 -27 -5 -21 21 9 39 21 51 52 56
24 3 62 -1 70 -8z m-333 -144 c-9 -16 -25 -3 -18 15 4 10 9 12 15 6 6 -6 7
-15 3 -21z m132 18 c10 -10 2 -73 -12 -87 -13 -13 -40 16 -43 48 -4 43 28 66
55 39z m-107 -303 c0 -3 -4 -8 -10 -11 -5 -3 -10 -1 -10 4 0 6 5 11 10 11 6 0
10 -2 10 -4z m150 -30 c0 -14 -4 -27 -9 -31 -6 -3 -20 -26 -32 -50 -29 -59
-57 -60 -112 -5 -22 22 -38 43 -35 45 3 3 23 -1 46 -9 46 -16 43 -18 92 43 30
37 50 40 50 7z m-85 4 c3 -5 -1 -10 -10 -10 -9 0 -13 5 -10 10 3 6 8 10 10 10
2 0 7 -4 10 -10z m145 -115 c0 -16 -27 -32 -37 -21 -7 7 16 36 28 36 5 0 9 -7
9 -15z m-86 -94 c9 -15 -23 -36 -36 -23 -5 5 -7 15 -4 21 9 13 33 14 40 2z
m-764 -57 c0 -14 -21 -19 -33 -7 -9 9 13 34 24 27 5 -3 9 -12 9 -20z m424
-354 c-35 -13 -154 -23 -154 -13 0 17 7 18 92 19 49 1 75 -2 62 -6z m-75 -379
c8 -5 9 -11 3 -15 -5 -3 -15 1 -22 9 -14 16 -3 20 19 6z m11 -309 c-7 -13 -9
-8 -9 23 0 35 1 37 10 17 6 -15 5 -30 -1 -40z m334 -7 c48 -37 60 -61 26 -50
-25 8 -38 -20 -22 -45 7 -12 7 -29 0 -59 -10 -40 -11 -41 -29 -25 -11 9 -19
23 -19 31 0 19 -17 16 -24 -4 -7 -16 -19 -159 -32 -373 -4 -52 -10 -103 -15
-112 -14 -26 -11 -65 6 -82 15 -15 19 -66 12 -161 -2 -32 4 -69 16 -103 17
-49 18 -56 3 -98 -8 -25 -13 -51 -10 -59 3 -7 -2 -41 -10 -75 -9 -34 -16 -75
-16 -92 0 -17 -7 -36 -16 -42 -9 -7 -21 -43 -29 -86 -7 -41 -17 -84 -21 -95
-7 -18 -6 -18 10 -5 39 32 86 86 92 105 4 11 14 28 24 37 17 16 18 16 24 -8 4
-13 13 -24 21 -24 7 0 16 -4 19 -8 5 -9 -16 -77 -27 -88 -4 -4 -7 -17 -7 -28
0 -12 -6 -30 -13 -41 -21 -31 -47 -108 -47 -138 0 -19 5 -27 18 -27 40 -1 46
-16 19 -52 -33 -42 -51 -117 -31 -125 18 -7 109 24 162 55 61 35 189 162 197
195 5 20 1 34 -18 56 -14 17 -27 36 -29 43 -6 17 -74 -34 -83 -62 -3 -11 -12
-20 -19 -20 -7 0 -25 -11 -40 -25 -35 -32 -55 -33 -49 0 3 13 21 36 40 51 19
14 38 37 43 50 5 13 16 24 25 24 8 0 15 5 15 10 0 6 12 16 28 23 15 6 29 14
32 17 3 3 34 28 69 55 80 62 113 96 157 162 33 50 63 71 84 58 16 -10 12 -28
-15 -67 -26 -38 -33 -78 -15 -78 43 0 140 86 140 124 0 17 78 126 90 126 4 0
13 -6 19 -14 17 -21 -18 -86 -80 -148 -31 -31 -49 -58 -49 -73 0 -38 -40 -68
-135 -100 -43 -15 -47 -15 -71 4 -34 26 -44 19 -34 -22 39 -149 34 -203 -20
-221 -28 -9 -40 -22 -62 -68 -16 -34 -48 -76 -79 -105 -29 -26 -63 -58 -75
-70 -13 -11 -39 -26 -59 -33 -19 -6 -47 -27 -62 -46 -32 -43 -73 -129 -73
-155 0 -19 -35 -76 -55 -91 -5 -4 -20 -8 -33 -8 -23 0 -46 -20 -89 -77 -27
-37 -95 -62 -118 -43 -20 17 -45 5 -45 -21 0 -29 -27 -59 -54 -59 -12 0 -35
-17 -53 -38 -85 -99 -115 -141 -140 -192 -16 -30 -31 -56 -35 -58 -4 -2 -40
-42 -80 -90 -58 -68 -72 -92 -69 -114 3 -31 -5 -34 -43 -16 -22 9 -31 7 -64
-16 -22 -15 -50 -38 -62 -51 -27 -29 -45 -32 -54 -9 -7 17 165 247 276 369 34
39 92 106 128 150 35 44 68 81 71 83 4 2 34 29 68 61 60 57 75 92 52 117 -5 5
-14 25 -20 45 -10 30 -9 45 4 80 9 24 21 62 26 84 5 22 13 49 18 60 5 11 17
45 27 75 9 30 25 71 35 90 21 39 24 66 9 75 -15 9 -12 61 5 75 8 7 15 27 15
44 1 28 2 29 14 13 15 -20 81 -42 96 -32 6 3 10 21 10 40 0 27 -6 37 -34 53
-21 12 -36 30 -38 44 -2 18 -10 24 -35 26 -19 2 -48 18 -75 41 -24 21 -51 40
-61 44 -10 4 -51 27 -92 52 -41 25 -86 45 -99 45 -19 0 -26 7 -31 30 -4 16 -5
42 -4 57 2 16 0 34 -5 41 -4 7 -5 25 -2 38 6 21 3 27 -15 31 -19 5 -20 11 -15
47 4 23 11 55 16 71 5 17 19 75 31 130 27 120 51 180 77 194 18 10 19 8 11
-32 -11 -58 -11 -117 1 -117 12 0 40 53 40 77 1 28 35 121 52 141 9 9 18 31
21 47 15 77 25 113 46 153 12 23 19 42 16 42 -4 0 3 13 14 29 30 42 27 69 -10
89 -30 17 -31 18 -26 83 4 71 28 119 58 119 25 0 143 42 229 83 54 24 82 21
134 -18z m1292 -326 c1 -69 8 -134 15 -151 10 -24 10 -43 0 -93 -14 -69 -8
-135 15 -171 11 -17 13 -50 8 -160 -9 -200 -8 -216 11 -230 18 -14 12 -34 -10
-34 -15 0 -30 -36 -26 -62 3 -22 3 -22 -44 -2 -61 25 -95 55 -86 73 5 9 12 82
16 162 3 81 11 164 16 185 9 36 22 160 49 464 17 194 33 202 36 19z m-2406 31
c12 -8 9 -10 -12 -10 -16 0 -28 5 -28 10 0 13 20 13 40 0z m690 -20 c0 -16
-37 -100 -44 -100 -4 0 10 73 19 98 9 27 25 29 25 2z m-376 -65 c-8 -48 -11
-55 -29 -55 -23 0 -30 76 -10 107 17 26 18 26 32 7 10 -13 12 -31 7 -59z
m3372 -20 c20 -8 45 -15 54 -15 10 0 20 -6 23 -12 3 -10 9 -10 26 0 29 17 58
15 73 -6 7 -10 28 -24 46 -31 17 -7 32 -18 32 -24 0 -14 -31 -47 -44 -47 -7 0
-17 -13 -23 -30 -13 -35 -28 -38 -43 -10 -6 11 -17 20 -25 20 -27 0 -15 15 26
33 49 21 51 50 2 55 -28 3 -32 0 -38 -27 -4 -17 -9 -31 -13 -31 -20 0 -72 26
-72 36 0 6 -20 15 -45 18 -25 4 -45 11 -45 17 0 5 -15 9 -32 8 -18 0 -58 1
-88 4 -30 3 -68 6 -85 6 -27 1 -25 4 30 32 55 28 66 30 133 25 39 -3 88 -13
108 -21z m-316 -15 c0 -5 -7 -10 -16 -10 -8 0 -12 5 -9 10 3 6 10 10 16 10 5
0 9 -4 9 -10z m-47 -17 c-7 -2 -21 -2 -30 0 -10 3 -4 5 12 5 17 0 24 -2 18 -5z
m-113 -7 c0 -3 -4 -8 -10 -11 -5 -3 -10 -1 -10 4 0 6 5 11 10 11 6 0 10 -2 10
-4z m141 -35 c-8 -5 -20 -7 -28 -4 -21 8 -15 13 15 13 20 0 23 -3 13 -9z
m-2944 -151 c4 -68 1 -99 -17 -160 -12 -41 -29 -100 -37 -130 -28 -102 -39
-134 -51 -138 -16 -5 -16 52 0 81 6 12 15 38 19 57 4 19 15 62 24 95 29 102
32 131 24 231 -5 53 -5 102 -2 108 13 20 35 -60 40 -144z m3133 141 c0 -5 -6
-11 -14 -14 -7 -3 -16 -17 -20 -31 -3 -15 -29 -49 -56 -76 -28 -28 -50 -57
-50 -66 0 -9 -16 -42 -34 -73 -19 -31 -39 -75 -44 -96 -5 -23 -25 -57 -46 -79
-20 -22 -36 -45 -36 -52 0 -14 -38 -29 -48 -19 -4 3 -8 40 -10 81 -3 56 0 80
12 99 9 13 16 31 16 38 0 8 6 20 14 26 7 6 19 33 27 58 7 27 27 61 45 80 18
18 34 40 36 50 3 14 11 17 37 15 24 -3 39 2 53 18 34 36 118 65 118 41z m440
-65 c0 -3 -4 -8 -10 -11 -5 -3 -10 -1 -10 4 0 6 5 11 10 11 6 0 10 -2 10 -4z
m-215 -26 c0 -9 -11 -16 -27 -18 -29 -3 -40 -32 -13 -32 9 0 15 -9 15 -25 0
-14 -4 -25 -9 -25 -5 0 -13 -15 -16 -32 -4 -18 -14 -42 -21 -53 -8 -11 -14
-29 -14 -40 0 -11 -15 -43 -34 -72 -18 -28 -37 -68 -41 -89 -3 -22 -13 -53
-22 -71 -18 -38 -13 -58 13 -58 10 0 19 -5 19 -12 0 -19 -66 -63 -96 -63 -14
0 -44 -14 -65 -31 -38 -30 -39 -30 -48 -9 -6 14 -6 26 0 34 49 67 48 64 29
105 -34 77 18 325 88 415 39 51 57 65 80 66 9 0 17 7 17 15 0 13 13 15 73 13
56 -2 72 -6 72 -18z m370 -42 c-4 -22 -15 -59 -25 -82 -18 -39 -109 -195 -129
-220 -5 -6 -12 -31 -16 -55 -5 -29 -19 -56 -41 -81 -22 -24 -32 -44 -28 -54 3
-9 -1 -27 -10 -40 -8 -14 -18 -38 -21 -54 -8 -48 -44 -121 -65 -132 -14 -7
-20 -21 -20 -43 0 -31 -15 -57 -32 -57 -15 0 -8 55 12 85 11 17 20 44 20 60 0
17 14 50 30 75 16 25 30 49 30 53 0 5 9 20 20 34 11 14 20 38 20 54 0 30 16
73 56 150 13 26 24 57 24 68 0 12 7 38 16 59 9 20 16 46 15 58 -1 11 10 33 24
48 15 17 24 35 20 44 -3 8 -1 29 5 46 9 30 12 31 56 28 l45 -4 -6 -40z m-4162
-108 c15 -41 36 -131 57 -235 4 -22 14 -67 23 -100 8 -33 20 -87 27 -120 30
-150 43 -202 55 -229 9 -20 10 -38 4 -60 -11 -38 -11 -46 -1 -46 13 0 82 201
82 239 0 11 6 35 14 53 8 18 19 53 26 78 7 25 16 54 20 65 20 48 9 -60 -16
-153 -54 -201 -74 -275 -178 -657 -49 -179 -52 -187 -117 -385 -89 -273 -100
-311 -104 -357 -2 -23 -8 -57 -13 -75 -16 -53 -35 -130 -40 -166 -5 -36 -18
-50 -34 -34 -6 6 -6 16 1 28 19 34 61 233 61 291 0 57 26 145 70 240 11 24 20
56 20 72 0 16 17 64 39 107 29 60 41 101 50 167 7 52 21 105 35 130 27 51 47
140 49 217 2 65 -55 402 -98 585 -46 193 -79 422 -58 400 5 -5 17 -30 26 -55z
m3887 -33 c0 -8 -9 -22 -20 -32 -12 -11 -18 -25 -15 -36 4 -12 -1 -22 -16 -29
-32 -18 -43 6 -19 41 11 14 17 29 13 32 -3 3 -3 13 0 22 8 19 57 20 57 2z
m-1940 -182 c21 -34 21 -36 4 -63 -30 -47 -86 -112 -96 -112 -18 0 -79 54 -95
83 -14 27 -13 32 4 56 27 35 91 71 130 71 25 0 36 -7 53 -35z m2313 -49 c3 -7
-3 -26 -14 -42 -10 -16 -19 -41 -19 -55 0 -14 -7 -34 -16 -45 -8 -10 -13 -14
-10 -7 4 6 1 15 -4 18 -8 5 -9 -4 -5 -27 4 -25 -1 -46 -25 -91 -17 -33 -30
-74 -30 -95 -1 -20 -7 -48 -15 -62 -8 -14 -14 -35 -15 -46 0 -12 -8 -32 -18
-45 -10 -13 -24 -45 -31 -71 -24 -88 -79 -148 -69 -75 6 39 28 124 39 152 4
11 15 49 24 84 8 35 33 100 54 145 22 44 42 92 46 106 11 43 79 170 91 170 7
0 14 -6 17 -14z m-469 -38 c-9 -14 -23 2 -17 18 4 12 8 13 14 3 4 -7 5 -17 3
-21z m-516 -11 c3 -15 -19 -74 -49 -129 -5 -10 -9 -30 -9 -46 0 -31 -16 -53
-34 -46 -7 3 -19 -10 -28 -28 l-17 -33 -2 30 c-2 44 1 69 12 80 5 5 9 15 9 23
0 19 48 121 65 139 8 8 15 19 15 24 0 18 35 5 38 -14z m-3328 -78 c4 -23 5
-52 1 -62 -6 -16 -11 -10 -25 32 -9 29 -14 62 -10 73 9 29 25 9 34 -43z m3000
-114 c0 -14 -3 -25 -7 -25 -13 0 -31 -49 -26 -70 4 -14 -1 -21 -21 -26 -15 -3
-35 -4 -46 -1 -15 4 -22 -1 -26 -21 -14 -57 -47 -74 -94 -47 l-25 14 31 11
c19 7 37 23 47 44 9 19 30 42 46 52 17 10 31 22 31 26 0 13 34 50 55 58 31 13
35 12 35 -15z m-2975 -7 c16 -73 65 -421 65 -462 0 -39 -13 -5 -32 86 -10 51
-23 113 -29 138 -18 85 -37 233 -32 246 8 21 22 17 28 -8z m535 -148 c0 -5 -2
-10 -4 -10 -3 0 -8 5 -11 10 -3 6 -1 10 4 10 6 0 11 -4 11 -10z m2640 -24 c0
-13 -8 -30 -17 -37 -15 -12 -16 -12 -10 4 4 10 7 27 7 38 0 10 5 19 10 19 6 0
10 -11 10 -24z m-2575 -58 c14 -6 25 -16 26 -22 5 -75 15 -96 43 -96 28 0 41
-35 31 -81 -7 -30 -35 -41 -35 -14 0 8 -5 15 -11 15 -8 0 -9 -12 -5 -37 16
-88 18 -114 12 -157 -7 -44 -8 -46 -42 -46 -27 0 -34 4 -34 20 0 11 5 20 10
20 6 0 10 25 10 55 0 30 -4 55 -10 55 -5 0 -10 7 -10 15 0 8 -2 15 -4 15 -2 0
-11 3 -20 6 -11 4 -16 1 -16 -10 0 -9 -4 -16 -10 -16 -5 0 -10 15 -10 34 0 18
-5 47 -11 64 -9 26 -8 35 4 47 9 8 20 15 26 15 19 0 12 39 -9 52 -24 15 -26
41 -5 58 8 7 15 9 15 4 0 -4 5 -3 12 4 15 15 12 15 43 0z m3189 -61 c-9 -57
-42 -123 -56 -109 -10 10 12 104 33 145 16 30 29 8 23 -36z m-3929 -46 c4 -25
13 -76 22 -112 8 -36 13 -76 11 -90 -3 -21 -7 -17 -27 26 -16 36 -21 62 -18
92 3 29 0 46 -9 54 -9 7 -14 31 -14 63 1 46 2 49 15 32 8 -10 17 -39 20 -65z
m2525 -100 c0 -12 -6 -21 -12 -21 -7 -1 -2 -7 12 -15 19 -10 22 -15 10 -19
-20 -8 -147 -2 -156 6 -3 4 19 32 50 63 l57 57 19 -25 c11 -14 20 -35 20 -46z
m-520 9 c36 -17 72 -35 80 -39 27 -15 16 -36 -27 -51 -24 -8 -43 -20 -43 -27
0 -34 -160 26 -175 66 -9 23 5 50 33 66 39 21 60 18 132 -15z m2131 -83 c-13
-13 -15 1 -4 30 7 17 8 17 11 -1 2 -10 -1 -23 -7 -29z m-4082 -114 c0 -25 -1
-26 -9 -8 -12 27 -12 35 0 35 6 0 10 -12 9 -27z m370 -243 c7 -52 11 -113 10
-135 -2 -23 1 -47 5 -54 4 -6 9 -65 11 -129 1 -64 0 -108 -2 -97 -2 11 -8 29
-13 40 -6 11 -14 58 -20 105 -13 113 -42 299 -56 353 -7 31 11 141 29 172 10
17 13 5 18 -70 4 -49 12 -133 18 -185z m1401 221 c0 -11 -4 -23 -10 -26 -5 -3
-14 -23 -20 -44 -6 -23 -32 -61 -65 -97 -54 -57 -56 -58 -50 -28 8 39 70 161
98 192 25 27 47 29 47 3z m-1040 -85 c10 -37 10 -50 -1 -75 -18 -41 -35 -39
-43 4 -7 34 10 115 24 115 4 0 13 -20 20 -44z m1328 -182 c3 -57 -10 -77 -46
-67 -25 6 -52 50 -52 82 0 26 27 42 65 38 29 -2 30 -4 33 -53z m-1364 -60 c10
-25 7 -34 -9 -28 -8 4 -15 15 -15 25 0 23 16 25 24 3z m-1044 -54 c0 -11 -7
-20 -15 -20 -8 0 -15 9 -15 20 0 11 7 20 15 20 8 0 15 -9 15 -20z m1051 -62
c-30 -32 -30 -33 -11 -42 26 -12 25 -26 -5 -54 l-24 -23 -10 38 c-7 24 -7 41
-1 47 6 6 10 23 10 38 0 25 3 28 36 28 l35 0 -30 -32z m1416 -484 c3 -8 -5
-38 -18 -66 -24 -52 -60 -78 -126 -93 -18 -3 -35 -11 -38 -16 -4 -5 -25 -9
-49 -9 -36 0 -45 4 -54 24 -10 23 -7 28 37 60 48 35 204 114 229 115 7 1 15
-6 19 -15z m-1384 -171 c-7 -2 -21 -2 -30 0 -10 3 -4 5 12 5 17 0 24 -2 18 -5z
m-118 -53 c3 -6 -2 -13 -12 -17 -10 -3 -28 -15 -40 -25 -21 -20 -21 -20 -44 3
-21 21 -21 23 -4 36 22 15 91 18 100 3z m-4335 -2240 c0 -44 -13 -71 -27 -57
-7 8 -6 71 2 96 11 35 25 13 25 -39z m20 -485 c-6 -7 -8 -19 -5 -27 8 -21 -20
-31 -35 -13 -17 20 18 79 37 63 9 -7 10 -14 3 -23z m545 -455 c-3 -5 -10 -10
-16 -10 -5 0 -9 5 -9 10 0 6 7 10 16 10 8 0 12 -4 9 -10z"/>
<path d="M6143 8313 c-22 -15 -32 -63 -14 -63 9 0 51 61 51 74 0 10 -13 6 -37
-11z"/>
<path d="M5996 8193 c-4 -9 -3 -20 2 -25 11 -11 36 17 27 32 -9 15 -22 12 -29
-7z"/>
<path d="M6085 8070 c-3 -5 -1 -10 4 -10 6 0 11 5 11 10 0 6 -2 10 -4 10 -3 0
-8 -4 -11 -10z"/>
<path d="M6105 8030 c3 -5 8 -10 11 -10 2 0 4 5 4 10 0 6 -5 10 -11 10 -5 0
-7 -4 -4 -10z"/>
<path d="M6031 8001 c-6 -11 -11 -24 -11 -30 0 -5 -5 -22 -12 -38 -6 -15 -12
-50 -13 -78 -4 -97 -16 -145 -41 -162 -13 -8 -24 -24 -24 -34 0 -10 -9 -23
-20 -29 -16 -9 -20 -21 -20 -63 0 -29 4 -66 9 -84 8 -27 6 -34 -12 -46 -17
-11 -21 -24 -21 -71 -1 -31 4 -60 10 -64 19 -13 23 -39 12 -83 -12 -50 -39
-79 -66 -72 -14 3 -23 -5 -35 -30 -28 -58 -19 -62 38 -17 21 17 45 30 55 30 9
0 25 15 35 34 15 27 16 39 7 65 -8 21 -8 40 -1 58 14 36 32 151 31 195 -1 21
5 41 13 48 8 7 15 21 15 31 0 10 4 20 10 24 5 3 12 32 16 65 6 55 22 79 44 65
18 -11 33 26 27 69 -5 31 -1 53 12 79 10 19 21 58 24 85 5 46 4 50 -16 55 -12
2 -30 8 -39 11 -11 5 -20 1 -27 -13z"/>
<path d="M5945 7013 c8 -31 13 -39 20 -31 9 9 -6 58 -17 58 -6 0 -7 -11 -3
-27z"/>
<path d="M6095 7020 c-7 -21 0 -40 16 -40 12 0 12 47 0 55 -5 3 -12 -4 -16
-15z"/>
<path d="M6078 6938 c-2 -6 -2 -23 0 -38 3 -21 8 -26 23 -23 22 6 26 42 7 61
-15 15 -25 15 -30 0z"/>
<path d="M6141 6631 c-30 -19 -131 -211 -131 -249 0 -15 -5 -33 -11 -39 -12
-12 -15 -86 -4 -103 3 -5 -1 -20 -9 -32 -8 -13 -17 -39 -20 -58 l-7 -35 21 24
c11 13 20 31 20 42 0 10 4 20 9 23 5 3 30 50 56 103 84 173 126 355 76 324z"/>
<path d="M5592 10058 c-19 -19 -15 -58 6 -58 23 0 52 -30 52 -53 0 -9 -9 -22
-20 -30 -20 -14 -20 -14 -1 -31 20 -19 36 -60 32 -88 -1 -9 7 -19 19 -23 11
-3 20 -11 20 -16 0 -6 -4 -8 -9 -4 -17 10 -21 -12 -6 -25 23 -19 41 3 48 60 7
61 1 83 -23 75 -9 -3 -23 1 -29 9 -17 21 -4 56 21 56 11 0 18 4 16 8 -1 4 -12
29 -23 54 -14 33 -29 51 -53 62 -39 19 -35 19 -50 4z"/>
<path d="M5450 10035 c0 -8 2 -15 4 -15 2 0 6 7 10 15 3 8 1 15 -4 15 -6 0
-10 -7 -10 -15z"/>
<path d="M5500 10016 c0 -14 29 -31 38 -21 6 6 -18 35 -29 35 -5 0 -9 -6 -9
-14z"/>
<path d="M5458 10004 c-3 -5 -9 -30 -13 -56 -6 -40 -5 -48 9 -48 8 0 20 9 26
20 6 11 14 19 18 19 27 -4 42 3 42 21 0 16 -5 19 -30 14 -25 -5 -31 -3 -38 16
-5 13 -11 19 -14 14z"/>
<path d="M5466 9673 c-12 -12 -6 -79 9 -99 13 -17 14 -14 15 38 0 53 -9 76
-24 61z"/>
<path d="M5775 9590 c-7 -11 11 -40 25 -40 10 0 1 38 -11 45 -4 3 -11 1 -14
-5z"/>
<path d="M4948 8123 c7 -3 16 -2 19 1 4 3 -2 6 -13 5 -11 0 -14 -3 -6 -6z"/>
<path d="M5013 7825 c-6 -14 -8 -25 -4 -25 4 0 13 11 19 25 6 14 8 25 4 25 -4
0 -12 -11 -19 -25z"/>
<path d="M4266 5582 c-4 -13 -5 -26 -2 -29 10 -11 18 4 14 29 l-4 23 -8 -23z"/>
</g>
</svg>
